<?xml version="1.0" encoding="iso-8859-1"?>
<!-- Generator: Adobe Illustrator 19.0.0, SVG Export Plug-In . SVG Version: 6.00 Build 0)  -->
<svg version="1.1" id="Capa_1" xmlns="http://www.w3.org/2000/svg" xmlns:xlink="http://www.w3.org/1999/xlink" x="0px" y="0px"
	 viewBox="0 0 512 512" style="enable-background:new 0 0 512 512;" xml:space="preserve">
<g>
	<g>
		<g>
			<path d="M196.948,0C107.071,0,33.95,73.121,33.95,162.998v237.536c0,22.068,6.402,43.346,18.513,61.534
				c2.296,3.448,6.952,4.38,10.4,2.085c3.447-2.296,4.381-6.952,2.085-10.4c-10.466-15.717-15.999-34.12-15.999-53.219V162.998
				C48.95,81.392,115.342,15,196.948,15s147.997,66.392,147.997,147.998c0,77.495-29.077,116.418-59.862,157.627
				c-20.968,28.069-42.65,57.093-54.469,98.815c-7.961,28.103-18.55,47.768-32.373,60.118C184.923,491.458,168.465,497,146.447,497
				c-21.659,0-42.129-6.792-59.198-19.64c-3.311-2.491-8.011-1.828-10.503,1.481c-2.491,3.31-1.828,8.012,1.481,10.503
				c19.69,14.821,43.28,22.656,68.22,22.656c50.858,0,81.267-27.286,98.6-88.472c11.063-39.054,30.974-65.707,52.054-93.926
				c30.897-41.358,62.845-84.126,62.845-166.605C359.945,73.121,286.825,0,196.948,0z"/>
			<path d="M257.764,88.979c-19.17-15.308-43.232-23.738-67.753-23.738c-59.964,0-108.748,48.784-108.748,108.748
				c0,4.142,3.358,7.5,7.5,7.5c4.142,0,7.5-3.358,7.5-7.5c0-15.417,3.743-29.975,10.364-42.817
				c16.385-10.78,52.742-8.609,78.889,10.857c36.056,26.843,28.18,66.868,20.275,88.337c-1.431,3.887,0.56,8.198,4.447,9.629
				c0.855,0.315,1.73,0.464,2.59,0.464c3.053,0,5.923-1.878,7.039-4.911c8.545-23.211,10.035-44.635,4.426-63.678
				c-4.855-16.485-15.167-30.965-29.82-41.874c-21.461-15.978-50.259-22.909-73.372-19.498
				c17.142-18.591,41.688-30.258,68.91-30.258c21.439,0,41.631,7.075,58.393,20.46c16.277,12.997,27.909,31.219,32.753,51.307
				c0.971,4.027,5.022,6.506,9.049,5.533c4.026-0.971,6.504-5.022,5.533-9.049C290.117,125.18,276.631,104.045,257.764,88.979z"/>
			<path d="M106.235,356.586c7.116,20.92,24.359,35.104,46.124,37.94c3.038,0.396,5.99,0.594,8.864,0.594
				c14.667,0,27.26-5.172,38.29-15.681c10.878-10.363,18.514-24.448,25.251-36.875c3.356-6.191,6.527-12.039,9.797-16.931
				c0.035-0.052,0.069-0.104,0.102-0.157c5.106-8.066,10.62-16.051,15.961-23.784c23.227-33.63,45.166-65.396,47.862-117.137
				c0.216-4.136-2.963-7.665-7.1-7.88c-4.128-0.212-7.665,2.963-7.88,7.1c-2.475,47.496-23.241,77.561-45.233,109.404
				c-5.4,7.819-10.983,15.904-16.235,24.196c-3.636,5.45-6.952,11.566-10.462,18.04c-12.87,23.74-26.167,48.29-57.279,44.236
				c-15.969-2.082-28.627-12.51-33.862-27.897c-5.388-15.839-1.725-32.688,9.558-43.971c7.787-7.786,12.075-18.139,12.075-29.15
				c0-22.732-18.493-41.225-41.225-41.225c-4.142,0-7.5,3.358-7.5,7.5c0,4.142,3.358,7.5,7.5,7.5
				c14.46,0,26.225,11.764,26.225,26.225c0,7.005-2.728,13.59-7.681,18.544C104.032,312.532,98.992,335.296,106.235,356.586z"/>
			<path d="M375.851,281.934c0-33.391,13.003-64.783,36.614-88.394c2.929-2.929,2.929-7.678,0-10.607
				c-2.929-2.929-7.678-2.929-10.607,0c-26.444,26.444-41.007,61.604-41.007,99c0,37.398,14.564,72.557,41.007,99.001
				c1.464,1.464,3.384,2.197,5.303,2.197s3.839-0.732,5.303-2.197c2.929-2.929,2.929-7.678,0-10.607
				C388.853,346.717,375.851,315.325,375.851,281.934z"/>
			<path d="M465.476,281.934c0-9.433,3.685-18.313,10.377-25.005c2.929-2.929,2.929-7.677,0-10.606
				c-2.929-2.93-7.678-2.929-10.607,0c-9.525,9.524-14.771,22.172-14.771,35.612s5.246,26.087,14.771,35.612
				c1.464,1.464,3.384,2.197,5.303,2.197s3.839-0.732,5.303-2.197c2.93-2.93,2.93-7.679,0.001-10.607
				C469.161,300.248,465.476,291.367,465.476,281.934z"/>
			<path d="M444.181,214.649c-2.929-2.929-7.678-2.929-10.607,0c-17.999,17.999-27.912,41.895-27.912,67.284
				c0,25.39,9.913,49.285,27.912,67.284c1.464,1.464,3.384,2.197,5.303,2.197c1.92,0,3.839-0.733,5.303-2.197
				c2.929-2.929,2.929-7.678,0-10.607c-15.166-15.166-23.518-35.294-23.518-56.678c0-21.384,8.352-41.512,23.518-56.678
				C447.11,222.327,447.11,217.578,444.181,214.649z"/>
		</g>
	</g>
</g>
<g>
</g>
<g>
</g>
<g>
</g>
<g>
</g>
<g>
</g>
<g>
</g>
<g>
</g>
<g>
</g>
<g>
</g>
<g>
</g>
<g>
</g>
<g>
</g>
<g>
</g>
<g>
</g>
<g>
</g>
</svg>
